<?xml version="1.0" encoding="UTF-8"?>
<svg width="602px" height="407px" viewBox="0 0 602 407" version="1.1" xmlns="http://www.w3.org/2000/svg" xmlns:xlink="http://www.w3.org/1999/xlink">
    <title>Artboard</title>
    <g id="Artboard" stroke="none" stroke-width="1" fill="none" fill-rule="evenodd">
        <g id="echo" transform="translate(17.649136, 350.456311)">
            <path d="M332.104007,0 L311.759125,52.6019417 L293.91064,52.6019417 L271.767007,0 L309.470007,0 L314.10761,12.5277149 L318.382007,0 L332.104007,0 Z M535.187007,0 L509.797004,41.9352751 L542.667374,41.9352751 L549.380337,13.8773041 L568.130337,13.8773041 L565.815522,52.6019417 L468.130337,52.6019417 L468.130337,43.5584635 L495.375007,0 L535.187007,0 Z M434.261007,0 L434.261246,20.7146467 C434.261246,27.3334991 434.338822,33.5240729 434.493973,39.286368 L446.130337,41.6224336 L446.130337,52.6019417 L384.45761,52.6019417 L384.45761,41.6224336 L397.024883,38.8191549 C397.180034,33.2125975 397.25761,27.138827 397.25761,20.5978434 L397.257007,0 L434.261007,0 Z" id="Combined-Shape" stroke="#D9A675"></path>
            <path d="M167.049518,24.4103075 C173.078972,30.2955215 180.165538,33.2381285 188.309216,33.2381285 C194.730193,33.2381285 200.211515,32.021851 204.753182,29.5892958 C209.294849,27.1567407 213.288383,24.1356642 216.733785,20.5260663 L224.955768,28.0591402 C220.100883,37.3185436 213.523297,44.2238613 205.223009,48.7750935 C196.922722,53.3263257 187.056343,55.6019417 175.623872,55.6019417 C164.1914,55.6019417 154.090107,53.2086214 145.319992,48.4219807 C136.549877,43.6353399 129.659073,36.7300222 124.647578,27.7060274 C120.26772,19.8193942 117.801778,10.5842046 117.249752,0.000458507827 L157.0795,0.000574542196 C158.19641,10.8762472 161.519749,19.0128248 167.049518,24.4103075 Z M50.48,0 L50.4808989,20.2893165 C50.4808989,26.4883813 50.5588015,32.3000045 50.7146067,37.7241862 L69.1775281,41.67609 L69.1775281,52.6019417 L9.99200722e-15,52.6019417 L9.99200722e-15,41.67609 L12.8539326,39.1189758 C13.0097378,33.3848409 13.0876404,27.2632644 13.0876404,20.7542464 L13.087,0 L50.48,0 Z" id="Combined-Shape" stroke="#6B7AA7"></path>
        </g>
        <g id="echo-2" transform="translate(17.722717, 272.456311)" stroke-width="2">
            <path d="M166.152664,25.1365462 C172.138046,30.9598394 179.172814,33.8714859 187.256967,33.8714859 C193.631011,33.8714859 199.072268,32.6680054 203.580738,30.2610442 C208.089208,27.854083 212.053552,24.8647925 215.47377,21.2931727 L223.635656,28.746988 C218.816257,37.9089692 212.286749,44.7416332 204.047131,49.2449799 C195.807514,53.7483266 186.013251,56 174.664344,56 C163.315437,56 153.287978,53.6318608 144.581967,48.8955823 C135.875956,44.1593039 129.035519,37.3266399 124.060656,28.3975904 C119.955921,21.0302767 117.544584,12.4736456 116.826646,2.7276972 L156.457556,2.72856339 C157.732462,12.619228 160.964164,20.0885556 166.152664,25.1365462 Z M50.37,2.7276972 L50.3704918,20.1285141 C50.3704918,26.3400268 50.448224,32.1633199 50.6036885,37.5983936 L69.0262295,41.5582329 L69.0262295,52.5060241 L-1.53210777e-14,52.5060241 L-1.53210777e-14,41.5582329 L12.8258197,38.9959839 C12.9812842,33.2503347 13.0590164,27.1164659 13.0590164,20.5943775 L13.059,2.7276972 L50.37,2.7276972 Z" id="Combined-Shape" stroke="#6B7AA7" fill-rule="nonzero"></path>
            <path d="M332.030426,0 L311.685544,52.6019417 L293.837059,52.6019417 L271.693426,0 L309.396426,0 L314.034029,12.5277149 L318.308426,0 L332.030426,0 Z M535.113426,0 L509.723423,41.9352751 L542.593793,41.9352751 L549.306756,13.8773041 L568.056756,13.8773041 L565.741942,52.6019417 L468.056756,52.6019417 L468.056756,43.5584635 L495.301426,0 L535.113426,0 Z M434.187426,0 L434.187665,20.7146467 C434.187665,27.3334991 434.265241,33.5240729 434.420393,39.286368 L446.056756,41.6224336 L446.056756,52.6019417 L384.384029,52.6019417 L384.384029,41.6224336 L396.951302,38.8191549 C397.106453,33.2125975 397.184029,27.138827 397.184029,20.5978434 L397.183426,0 L434.187426,0 Z" id="Combined-Shape" stroke="#D9A675"></path>
        </g>
        <g id="echo-3" transform="translate(17.722717, 195.456311)" stroke-width="3">
            <path d="M166.152664,25.1365462 C172.138046,30.9598394 179.172814,33.8714859 187.256967,33.8714859 C193.631011,33.8714859 199.072268,32.6680054 203.580738,30.2610442 C208.089208,27.854083 212.053552,24.8647925 215.47377,21.2931727 L223.635656,28.746988 C218.816257,37.9089692 212.286749,44.7416332 204.047131,49.2449799 C195.807514,53.7483266 186.013251,56 174.664344,56 C163.315437,56 153.287978,53.6318608 144.581967,48.8955823 C135.875956,44.1593039 129.035519,37.3266399 124.060656,28.3975904 C119.955921,21.0302767 117.544584,12.4736456 116.826646,2.7276972 L156.457556,2.72856339 C157.732462,12.619228 160.964164,20.0885556 166.152664,25.1365462 Z M50.37,2.7276972 L50.3704918,20.1285141 C50.3704918,26.3400268 50.448224,32.1633199 50.6036885,37.5983936 L69.0262295,41.5582329 L69.0262295,52.5060241 L-1.53210777e-14,52.5060241 L-1.53210777e-14,41.5582329 L12.8258197,38.9959839 C12.9812842,33.2503347 13.0590164,27.1164659 13.0590164,20.5943775 L13.059,2.7276972 L50.37,2.7276972 Z" id="Combined-Shape" stroke="#6B7AA7" fill-rule="nonzero"></path>
            <path d="M332.030426,0 L311.685544,52.6019417 L293.837059,52.6019417 L271.693426,0 L309.396426,0 L314.034029,12.5277149 L318.308426,0 L332.030426,0 Z M535.113426,0 L509.723423,41.9352751 L542.593793,41.9352751 L549.306756,13.8773041 L568.056756,13.8773041 L565.741942,52.6019417 L468.056756,52.6019417 L468.056756,43.5584635 L495.301426,0 L535.113426,0 Z M434.187426,0 L434.187665,20.7146467 C434.187665,27.3334991 434.265241,33.5240729 434.420393,39.286368 L446.056756,41.6224336 L446.056756,52.6019417 L384.384029,52.6019417 L384.384029,41.6224336 L396.951302,38.8191549 C397.106453,33.2125975 397.184029,27.138827 397.184029,20.5978434 L397.183426,0 L434.187426,0 Z" id="Combined-Shape" stroke="#D9A675"></path>
        </g>
        <g id="reviz" transform="translate(15.857143, 6.000000)" fill-rule="nonzero">
            <g id="viz" transform="translate(242.524590, 0.000000)" fill="#D9A675">
                <polygon id="Path" points="79.0536885 68.248996 79.0536885 58 123.127869 58 123.127869 68.248996 109.602459 70.811245 71.125 170.971888 53.4020492 170.971888 11.4266393 70.5783133 0 68.248996 0 58 66.2278689 58 66.2278689 68.248996 51.5364754 71.2771084 73.4569672 130.907631 93.745082 71.0441767"></polygon>
                <path d="M143.182787,170.506024 L143.182787,159.558233 L155.77541,156.763052 C155.930874,151.172691 156.008607,145.116466 156.008607,138.594378 C156.008607,132.072289 156.008607,126.404284 156.008607,121.590361 L156.008607,110.409639 C156.008607,104.042838 155.96974,98.7242303 155.892008,94.4538153 C155.814276,90.1834003 155.619945,85.7188755 155.309016,81.060241 L140.85082,78.9638554 L140.85082,69.8795181 L189.822131,54.2730924 L193.786475,56.8353414 L193.086885,90.6104418 L193.086885,121.590361 C193.086885,126.404284 193.086885,132.111111 193.086885,138.710843 C193.086885,145.310576 193.164617,151.483266 193.320082,157.228916 L204.979918,159.558233 L204.979918,170.506024 L143.182787,170.506024 Z M174.197951,37.0361446 C168.756694,37.0361446 164.09276,35.2891566 160.206148,31.7951807 C156.319536,28.3012048 154.37623,23.914324 154.37623,18.6345382 C154.37623,13.1994645 156.319536,8.73493976 160.206148,5.24096386 C164.09276,1.74698795 168.756694,0 174.197951,0 C179.639208,0 184.303142,1.74698795 188.189754,5.24096386 C192.076366,8.73493976 194.019672,13.1994645 194.019672,18.6345382 C194.019672,23.914324 192.076366,28.3012048 188.189754,31.7951807 C184.303142,35.2891566 179.639208,37.0361446 174.197951,37.0361446 Z" id="Shape"></path>
                <polygon id="Path" points="225.734426 170.506024 225.734426 161.421687 284.033607 68.4819277 252.318852 68.4819277 246.022541 94.3373494 227.133607 93.4056225 228.99918 58 324.143443 58 324.143443 66.8514056 267.709836 159.791165 300.82377 159.791165 307.586475 131.606426 326.47541 131.606426 324.143443 170.506024"></polygon>
            </g>
            <g id="re" transform="translate(0.000000, 54.273092)" fill="#6B7AA7">
                <path d="M1.86557377,116.232932 L1.86557377,105.285141 L14.6913934,102.722892 C14.8468579,96.9772423 14.9245902,90.8433735 14.9245902,84.3212851 C14.9245902,77.7991968 14.9245902,72.1311914 14.9245902,67.3172691 L14.9245902,53.5742972 C14.9245902,49.2262383 14.885724,45.6546185 14.8079918,42.8594378 C14.7302596,40.064257 14.6525273,37.4631861 14.5747951,35.0562249 C14.4970628,32.6492637 14.3804645,29.892905 14.225,26.7871486 L0,24.6907631 L0,15.6064257 L45.9397541,-5.68434189e-14 L50.1372951,2.562249 L52.2360656,30.0481928 C55.5008197,20.1097724 60.0870219,12.6171352 65.9946721,7.57028112 C71.9023224,2.52342704 77.7322404,-5.68434189e-14 83.4844262,-5.68434189e-14 C88.6147541,-5.68434189e-14 93.0454918,1.43641232 96.7766393,4.30923695 C100.507787,7.18206158 102.839754,11.4912985 103.772541,17.2369478 C103.617077,23.2931727 101.984699,27.9906292 98.8754098,31.3293173 C95.7661202,34.6680054 91.8795082,36.3373494 87.2155738,36.3373494 C80.6860656,36.3373494 74.7006831,32.6880857 69.2594262,25.3895582 L67.8602459,23.5261044 C64.4400273,26.7871486 61.2918716,30.9022758 58.4157787,35.8714859 C55.5396858,40.8406961 53.4797814,46.042838 52.2360656,51.4779116 L52.2360656,67.3172691 C52.2360656,72.1311914 52.2360656,77.643909 52.2360656,83.8554217 C52.2360656,90.0669344 52.3137978,95.8902276 52.4692623,101.325301 L70.8918033,105.285141 L70.8918033,116.232932 L1.86557377,116.232932 Z" id="Path"></path>
                <path d="M176.063525,12.1124498 C171.710519,12.1124498 167.707309,14.7911647 164.053893,20.1485944 C160.400478,25.5060241 158.340574,35.3279786 157.87418,49.6144578 L177.695902,49.6144578 C183.292623,49.6144578 187.062637,48.4886212 189.005943,46.2369478 C190.949249,43.9852744 191.920902,40.2195448 191.920902,34.939759 C191.920902,27.1753681 190.366257,21.4297189 187.256967,17.7028112 C184.147678,13.9759036 180.41653,12.1124498 176.063525,12.1124498 Z M176.529918,119.726908 C165.181011,119.726908 155.153552,117.358768 146.447541,112.62249 C137.74153,107.886212 130.901093,101.053548 125.92623,92.124498 C120.951366,83.1954485 118.463934,72.519411 118.463934,60.0963855 C118.463934,47.0522088 121.378893,36.0655957 127.208811,27.1365462 C133.03873,18.2074967 140.539891,11.4524766 149.712295,6.87148594 C158.884699,2.29049531 168.445765,-5.68434189e-14 178.395492,-5.68434189e-14 C188.656148,-5.68434189e-14 197.401025,2.17402945 204.630123,6.52208835 C211.859221,10.8701473 217.339344,16.7322624 221.070492,24.1084337 C224.801639,31.4846051 226.667213,39.9089692 226.667213,49.3815261 C226.667213,53.8848728 226.20082,58 225.268033,61.7269076 L157.87418,61.7269076 C158.651503,73.9946452 162.032855,83.0401606 168.018238,88.8634538 C174.00362,94.686747 181.038388,97.5983936 189.122541,97.5983936 C195.496585,97.5983936 200.937842,96.394913 205.446311,93.9879518 C209.954781,91.5809906 213.919126,88.5917001 217.339344,85.0200803 L225.50123,92.4738956 C220.681831,101.635877 214.152322,108.468541 205.912705,112.971888 C197.673087,117.475234 187.878825,119.726908 176.529918,119.726908 Z" id="Shape"></path>
            </g>
        </g>
    </g>
</svg>